<svg width="671" height="109" viewBox="0 0 671 109" fill="none" xmlns="http://www.w3.org/2000/svg">
<path d="M193.965 90.5923L232.056 41.5236V27.7922H167.072V44.1225H206.889V44.5664L166.396 95.0444V107.367H232.958V91.0362H193.97V90.5923H193.965ZM142.817 29.4577C137.71 27.2569 131.672 26.1541 124.712 26.1541C117.753 26.1541 111.552 27.2294 106.417 29.3845C101.282 31.5396 97.2767 34.5183 94.3966 38.3298C91.5164 42.1413 89.8494 46.4973 89.4003 51.3932L89.3262 52.2854H109.459L109.608 51.6174C110.159 49.0459 111.636 46.9274 114.039 45.271C116.442 43.6146 119.697 42.7865 123.805 42.7865C127.912 42.7865 131.394 43.8022 133.644 45.8292C135.899 47.8608 137.025 50.629 137.025 54.1431V59.007L117.118 60.2287C107.149 60.8738 99.4252 63.2623 93.9428 67.394C88.4603 71.5258 85.7191 77.2041 85.7191 84.429V84.5754C85.7191 89.2288 86.8582 93.3743 89.1364 97.0073C91.4145 100.645 94.5957 103.491 98.6751 105.545C102.759 107.6 107.478 108.625 112.835 108.625C116.34 108.625 119.609 108.103 122.638 107.065C125.666 106.026 128.361 104.516 130.713 102.535C133.066 100.553 135.02 98.229 136.571 95.5569H137.02V107.362H158.954V52.807C158.954 47.4627 157.538 42.7865 154.708 38.7782C151.879 34.77 147.911 31.6632 142.803 29.4623L142.817 29.4577ZM137.034 78.3435C137.034 81.0659 136.293 83.5276 134.816 85.7285C133.339 87.9293 131.311 89.6635 128.731 90.9264C126.152 92.1892 123.235 92.8207 119.98 92.8207C116.174 92.8207 113.145 91.9925 110.89 90.3361C108.635 88.6797 107.51 86.3919 107.51 83.4681V83.3217C107.51 80.4986 108.612 78.2474 110.816 76.5681C113.02 74.8843 116.225 73.9234 120.434 73.6718L137.038 72.5736V78.348L137.034 78.3435ZM296.331 31.0912C290.344 27.8014 283.319 26.1541 275.258 26.1541C267.196 26.1541 260.26 27.8151 254.296 31.1278C248.336 34.4451 243.692 39.1809 240.358 45.3442C237.029 51.5076 235.362 58.8697 235.362 67.4306V67.5771C235.362 76.1884 237.001 83.6008 240.284 89.8099C243.562 96.019 248.183 100.773 254.143 104.063C260.102 107.353 267.164 109 275.327 109C283.491 109 290.478 107.357 296.437 104.063C302.397 100.773 307.018 96.0327 310.296 89.8465C313.575 83.6603 315.219 76.2387 315.219 67.5771V67.4306C315.219 58.8194 313.565 51.4343 310.259 45.271C306.953 39.1077 302.309 34.3856 296.322 31.0912H296.331ZM292.84 67.5771C292.84 72.775 292.126 77.1904 290.7 80.828C289.274 84.4656 287.255 87.2384 284.653 89.1419C282.046 91.0453 278.967 92.0016 275.411 92.0016C271.854 92.0016 268.673 91.0499 266.02 89.1419C263.367 87.2384 261.325 84.4656 259.898 80.828C258.472 77.1904 257.759 72.775 257.759 67.5771V67.4306C257.759 62.3334 258.486 57.9775 259.94 54.3673C261.394 50.7572 263.432 47.9843 266.062 46.0534C268.692 44.1225 271.757 43.1571 275.262 43.1571C278.768 43.1571 281.912 44.1088 284.542 46.0168C287.172 47.9203 289.209 50.6931 290.663 54.3307C292.117 57.9683 292.844 62.338 292.844 67.4352V67.5816L292.84 67.5771ZM78.2455 53.26C81.7786 47.7922 83.5428 41.519 83.5428 34.4406V34.2941C83.5428 27.1196 82.0008 20.9837 78.9216 15.8819C75.8423 10.7847 71.411 6.8634 65.6229 4.11804C59.8394 1.37268 52.8891 0 44.7765 0H0V107.119H22.6893V68.3686H40.8684L61.0017 107.119H86.7702L63.9328 64.9553C69.9431 62.6308 74.7125 58.7324 78.2455 53.2646V53.26ZM60.3303 34.5138C60.3303 39.762 58.7281 43.8663 55.5238 46.8359C52.3196 49.8054 47.9114 51.2879 42.3039 51.2879H22.6893V17.5932H41.9983C47.5595 17.5932 52.0001 19.1031 55.334 22.123C58.6633 25.1429 60.3303 29.2244 60.3303 34.3719V34.5183V34.5138ZM571.139 31.0866C566.254 27.7968 560.434 26.1496 553.673 26.1496C547.964 26.1496 542.945 27.5222 538.61 30.2722C534.276 33.0175 531.012 36.7924 528.808 41.5922H528.359V0.247083H506.424V107.371H528.359V93.7861H528.808C531.012 98.5356 534.239 102.26 538.499 104.96C542.755 107.655 547.788 109.005 553.599 109.005C560.36 109.005 566.194 107.348 571.102 104.031C576.011 100.714 579.789 95.9641 582.447 89.7779C585.1 83.5917 586.429 76.1929 586.429 67.5816V67.5084C586.429 58.8468 585.1 51.4343 582.447 45.2756C579.794 39.1122 576.025 34.3902 571.139 31.0958V31.0866ZM564.041 67.5725C564.041 72.3723 563.328 76.5315 561.902 80.0456C560.476 83.5596 558.434 86.2684 555.78 88.1764C553.127 90.0845 549.969 91.0362 546.316 91.0362C542.662 91.0362 539.629 90.0845 536.925 88.1764C534.221 86.273 532.119 83.5642 530.614 80.0456C529.109 76.5315 528.359 72.3769 528.359 67.5725V67.4993C528.359 62.7498 529.123 58.618 530.651 55.104C532.179 51.5899 534.281 48.8812 536.962 46.9731C539.638 45.0697 542.759 44.1134 546.316 44.1134C549.872 44.1134 553.053 45.056 555.706 46.9365C558.359 48.8171 560.411 51.503 561.865 54.9896C563.319 58.4808 564.046 62.6491 564.046 67.4993V67.5725H564.041ZM476.923 19.9679H498.969V0.247083H476.923V19.9725V19.9679ZM363.375 26.1496C358.666 26.1496 354.735 27.5131 351.582 30.231C348.428 32.9535 346.247 36.765 345.043 41.6654H344.594V27.7831H322.66V107.371H344.594V62.8322C344.594 58.9704 345.27 55.7034 346.622 53.0312C347.974 50.3591 349.928 48.3321 352.48 46.9457C355.036 45.5593 358.115 44.8684 361.722 44.8684C363.324 44.8684 364.825 44.9782 366.228 45.2024C367.631 45.4266 368.784 45.7331 369.682 46.1312V26.9732C368.881 26.7261 367.927 26.5293 366.825 26.3783C365.723 26.2319 364.57 26.1541 363.371 26.1541L363.375 26.1496ZM671.009 66.0122C671.009 57.9958 669.444 50.9905 666.314 45.0056C663.184 39.0162 658.752 34.3765 653.015 31.0866C647.278 27.7968 640.481 26.1496 632.618 26.1496C624.756 26.1496 617.93 27.8471 612.147 31.2331C606.363 34.6236 601.867 39.4234 598.663 45.6325C595.459 51.8461 593.857 59.1808 593.857 67.6457V67.7189C593.857 76.1838 595.459 83.5047 598.663 89.691C601.867 95.8772 606.424 100.64 612.337 103.981C618.245 107.321 625.307 108.991 633.521 108.991C639.281 108.991 644.301 108.25 648.584 106.763C652.867 105.28 656.497 103.299 659.479 100.823C662.457 98.348 664.823 95.6255 666.578 92.6559C668.333 89.6864 669.509 86.7443 670.111 83.8205L670.338 83.006H650.205L650.052 83.4498C649.552 84.9323 648.598 86.3965 647.199 87.8287C645.796 89.2654 643.995 90.4505 641.791 91.3931C639.587 92.3357 636.985 92.8024 633.979 92.8024C630.173 92.8024 626.89 91.9742 624.14 90.3178C621.385 88.6614 619.268 86.273 617.791 83.1524C616.407 80.2332 615.68 76.7649 615.592 72.7612H671.018V66.0076L671.009 66.0122ZM615.837 59.0344C616.171 56.3714 616.814 54.0058 617.782 51.9468C619.259 48.8034 621.315 46.4149 623.941 44.7814C626.571 43.1479 629.585 42.3335 632.993 42.3335C636.401 42.3335 639.388 43.125 641.972 44.7082C644.551 46.2914 646.565 48.657 648.019 51.7958C648.977 53.8777 649.617 56.2936 649.941 59.0344H615.833H615.837ZM419.612 84.4244H419.163L394.362 0.247083H369.27L405.48 107.367H433.203L469.487 0.247083H444.32L419.603 84.429L419.612 84.4244ZM476.923 107.362H498.937V27.7876H476.923V107.371V107.362Z" fill="#F5F5F5"/>
</svg>
